<?xml version="1.0" encoding="UTF-8"?><!DOCTYPE svg PUBLIC "-//W3C//DTD SVG 1.1//EN" "http://www.w3.org/Graphics/SVG/1.1/DTD/svg11.dtd"><svg xmlns="http://www.w3.org/2000/svg"><symbol id="briefcase" viewBox="0 0 1792 1792"><path d="M640 256h512V128H640v128zm1152 640v480q0 66-47 113t-113 47H160q-66 0-113-47T0 1376V896h672v160q0 26 19 45t45 19h320q26 0 45-19t19-45V896h672zm-768 0v128H768V896h256zm768-480v384H0V416q0-66 47-113t113-47h352V96q0-40 28-68t68-28h576q40 0 68 28t28 68v160h352q66 0 113 47t47 113z" fill="#fff"/></symbol><symbol id="envelope-square" viewBox="0 0 1792 1792"><path d="M1376 128q119 0 203.5 84.5T1664 416v960q0 119-84.5 203.5T1376 1664H416q-119 0-203.5-84.5T128 1376V416q0-119 84.5-203.5T416 128h960zm32 1056V748q-31 35-64 55-34 22-132.5 85T1060 987q-98 69-164 69t-164-69q-46-32-141.5-92.5T448 802q-12-8-33-27t-31-27v436q0 40 28 68t68 28h832q40 0 68-28t28-68zm0-573q0-41-27.5-70t-68.5-29H480q-40 0-68 28t-28 68q0 37 30.5 76.5T482 749q47 32 137.5 89T749 921q3 2 17 11.5t21 14 21 13 23.5 13T853 982t22.5 7.5T896 992t20.5-2.5T939 982t21.5-9.5 23.5-13 21-13 21-14 17-11.5l267-174q35-23 66.5-62.5T1408 611z" fill="#fff"/></symbol><symbol id="folder-open" viewBox="0 0 1792 1792"><path d="M1815 952q0 31-31 66l-336 396q-43 51-120.5 86.5T1184 1536H96q-34 0-60.5-13T9 1480q0-31 31-66l336-396q43-51 120.5-86.5T640 896h1088q34 0 60.5 13t26.5 43zm-343-344v160H640q-94 0-197 47.5T279 935l-337 396-5 6q0-4-.5-12.5t-.5-12.5V352q0-92 66-158t158-66h320q92 0 158 66t66 158v32h544q92 0 158 66t66 158z" fill="#fff"/></symbol><symbol id="github-square" viewBox="0 0 1792 1792"><path d="M522 1352q-8 9-20-3-13-11-4-19 8-9 20 3 12 11 4 19zm-42-61q9 12 0 19-8 6-17-7t0-18q9-7 17 6zm-61-60q-5 7-13 2-10-5-7-12 3-5 13-2 10 5 7 12zm31 34q-6 7-16-3-9-11-2-16 6-6 16 3 9 11 2 16zm129 112q-4 12-19 6-17-4-13-15t19-7q16 5 13 16zm63 5q0 11-16 11-17 2-17-11 0-11 16-11 17-2 17 11zm58-10q2 10-14 14t-18-8 14-15q16-2 18 9zm964-956v960q0 119-84.5 203.5T1376 1664h-224q-16 0-24.5-1t-19.5-5-16-14.5-5-27.5v-239q0-97-52-142 57-6 102.5-18t94-39 81-66.5 53-105T1386 856q0-121-79-206 37-91-8-204-28-9-81 11t-92 44l-38 24q-93-26-192-26t-192 26q-16-11-42.5-27T578 459.5 492 446q-44 113-7 204-79 85-79 206 0 85 20.5 150t52.5 105 80.5 67 94 39 102.5 18q-40 36-49 103-21 10-45 15t-57 5-65.5-21.5T484 1274q-19-32-48.5-52t-49.5-24l-20-3q-21 0-29 4.5t-5 11.5 9 14 13 12l7 5q22 10 43.5 38t31.5 51l10 23q13 38 44 61.5t67 30 69.5 7 55.5-3.5l23-4q0 38 .5 103t.5 68q0 22-11 33.5t-22 13-33 1.5H416q-119 0-203.5-84.5T128 1376V416q0-119 84.5-203.5T416 128h960q119 0 203.5 84.5T1664 416z" fill="#fff"/></symbol><symbol id="graduation-cap" viewBox="0 0 1792 1792"><path d="M1518 836l18 316q4 69-82 128t-235 93.5-323 34.5-323-34.5-235-93.5-82-128l18-316 574 181q22 7 48 7t48-7zm530-324q0 23-22 31L906 895q-4 1-10 1t-10-1L234 689q-43 34-71 111.5T129 979q63 36 63 109 0 69-58 107l58 433q2 14-8 25-9 11-24 11H-32q-15 0-24-11-10-11-8-25l58-433q-58-38-58-107 0-73 65-111 11-207 98-330l-333-104q-22-8-22-31t22-31L886 129q4-1 10-1t10 1l1120 352q22 8 22 31z" fill="#fff"/></symbol><symbol id="home" viewBox="0 0 1792 1792"><path d="M1472 992v480q0 26-19 45t-45 19h-384v-384H768v384H384q-26 0-45-19t-19-45V992q0-1 .5-3t.5-3l575-474 575 474q1 2 1 6zm223-69l-62 74q-8 9-21 11h-3q-13 0-21-7L896 424l-692 577q-12 8-24 7-13-2-21-11l-62-74q-8-10-7-23.5t11-21.5l719-599q32-26 76-26t76 26l244 204V288q0-14 9-23t23-9h192q14 0 23 9t9 23v408l219 182q10 8 11 21.5t-7 23.5z" fill="#fff"/></symbol><symbol id="linkedin-square" viewBox="0 0 1792 1792"><path d="M365 1414h231V720H365v694zm246-908q-1-52-36-86t-93-34-94.5 34-36.5 86q0 51 35.5 85.5T479 626h1q59 0 95-34.5t36-85.5zm585 908h231v-398q0-154-73-233t-193-79q-136 0-209 117h2V720H723q3 66 0 694h231v-388q0-38 7-56 15-35 45-59.5t74-24.5q116 0 116 157v371zm468-998v960q0 119-84.5 203.5T1376 1664H416q-119 0-203.5-84.5T128 1376V416q0-119 84.5-203.5T416 128h960q119 0 203.5 84.5T1664 416z" fill="#fff"/></symbol><symbol id="warning" viewBox="0 0 1792 1792"><path d="M1024 1375v-190q0-14-9.5-23.5T992 1152H800q-13 0-22.5 9.5T768 1185v190q0 14 9.5 23.5t22.5 9.5h192q13 0 22.5-9.5t9.5-23.5zm-2-374l18-459q0-12-10-19-13-11-24-11H786q-11 0-24 11-10 7-10 21l17 457q0 10 10 16.5t24 6.5h185q14 0 23.5-6.5t10.5-16.5zm-14-934l768 1408q35 63-2 126-17 29-46.5 46t-63.5 17H128q-34 0-63.5-17T18 1601q-37-63-2-126L784 67q17-31 47-49t65-18 65 18 47 49z" fill="#fff"/></symbol></svg>
